<svg width="282" height="42" viewBox="0 0 282 42" fill="none" xmlns="http://www.w3.org/2000/svg">
<path d="M2 4.74038C2 3.22691 3.21414 2 4.71186 2H31.2881C32.7859 2 34 3.22691 34 4.74038V37.2596C34 38.7731 32.7859 40 31.2881 40H4.71186C3.21414 40 2 38.7731 2 37.2596V4.74038Z" fill="#6D51FB"/>
<path d="M61.3248 2C62.8023 2 64 3.22104 64 4.72727V17.2727C64 18.779 62.8023 20 61.3248 20L38.6752 20C37.1977 20 36 18.779 36 17.2727L36 4.72727C36 3.22104 37.1977 2 38.6752 2L61.3248 2Z" fill="#F8C836"/>
<path d="M36 24.7835C36 23.2462 37.2126 22 38.7083 22H46.2917C47.7874 22 49 23.2462 49 24.7835V37.2165C49 38.7538 47.7874 40 46.2917 40H38.7083C37.2126 40 36 38.7538 36 37.2165V24.7835Z" fill="#54B8F8"/>
<path d="M51 24.7551C51 23.2335 52.2126 22 53.7083 22H61.2917C62.7874 22 64 23.2335 64 24.7551V37.2449C64 38.7665 62.7874 40 61.2917 40H53.7083C52.2126 40 51 38.7665 51 37.2449V24.7551Z" fill="#65DCFA"/>
<path d="M96.4043 16.2095C95.5167 10.3972 91.1677 7 85.6776 7C78.9576 7 74 12.2682 74 20.9602C74 29.6521 78.9322 34.9204 85.6776 34.9204C91.3833 34.9204 95.5548 31.1782 96.4043 25.8038L92.4483 25.7905C91.7763 29.2673 88.9869 31.1782 85.703 31.1782C81.2525 31.1782 77.8925 27.6085 77.8925 20.9602C77.8925 14.3649 81.2399 10.7422 85.7156 10.7422C89.0249 10.7422 91.8017 12.6929 92.4483 16.2095H96.4043Z" fill="black"/>
<path d="M108.992 34.9602C114.482 34.9602 118.07 30.7536 118.07 24.4502C118.07 18.1071 114.482 13.9005 108.992 13.9005C103.501 13.9005 99.9133 18.1071 99.9133 24.4502C99.9133 30.7536 103.501 34.9602 108.992 34.9602ZM109.004 31.6294C105.416 31.6294 103.742 28.3517 103.742 24.437C103.742 20.5355 105.416 17.218 109.004 17.218C112.567 17.218 114.241 20.5355 114.241 24.437C114.241 28.3517 112.567 31.6294 109.004 31.6294Z" fill="black"/>
<path d="M122.302 34.5488H126.093V21.982C126.093 19.2351 127.931 17.3242 130.087 17.3242C132.192 17.3242 133.65 18.7839 133.65 21V34.5488H137.428V21.5573C137.428 19.1024 138.861 17.3242 141.333 17.3242C143.337 17.3242 144.985 18.4919 144.985 21.2521V34.5488H148.776V20.8806C148.776 16.2227 146.291 13.9005 142.766 13.9005C139.964 13.9005 137.859 15.3071 136.921 17.4834H136.718C135.869 15.254 134.081 13.9005 131.481 13.9005C128.908 13.9005 126.993 15.2408 126.182 17.4834H125.941V14.1659H122.302V34.5488Z" fill="black"/>
<path d="M153.857 34.5488H157.648V21.982C157.648 19.2351 159.487 17.3242 161.642 17.3242C163.747 17.3242 165.205 18.7839 165.205 21V34.5488H168.984V21.5573C168.984 19.1024 170.416 17.3242 172.889 17.3242C174.892 17.3242 176.54 18.4919 176.54 21.2521V34.5488H180.332V20.8806C180.332 16.2227 177.846 13.9005 174.322 13.9005C171.519 13.9005 169.415 15.3071 168.476 17.4834H168.274C167.424 15.254 165.636 13.9005 163.037 13.9005C160.463 13.9005 158.549 15.2408 157.737 17.4834H157.496V14.1659H153.857V34.5488Z" fill="black"/>
<path d="M191.08 35C194.301 35 196.114 33.2882 196.837 31.7621H196.989V34.5488H200.691V21.0133C200.691 15.0815 196.228 13.9005 193.134 13.9005C189.61 13.9005 186.364 15.3867 185.096 19.1024L188.659 19.9517C189.217 18.5052 190.637 17.1118 193.185 17.1118C195.632 17.1118 196.888 18.4521 196.888 20.7611V20.854C196.888 22.3005 195.467 22.2739 191.968 22.6986C188.278 23.1498 184.5 24.1583 184.5 28.7896C184.5 32.7972 187.378 35 191.08 35ZM191.905 31.8152C189.762 31.8152 188.215 30.8066 188.215 28.8427C188.215 26.7194 190.015 25.963 192.209 25.6578C193.439 25.4853 196.355 25.1403 196.9 24.5697V27.1972C196.9 29.6123 195.062 31.8152 191.905 31.8152Z" fill="black"/>
<path d="M209.532 22.4464C209.532 19.1953 211.434 17.3374 214.071 17.3374C216.645 17.3374 218.205 19.1024 218.205 22.0616V34.5488H221.996V21.5839C221.996 16.5412 219.346 13.9005 215.364 13.9005C212.435 13.9005 210.521 15.3204 209.621 17.4834H209.38V14.1659H205.741V34.5488H209.532V22.4464Z" fill="black"/>
<path d="M234.371 34.9469C237.921 34.9469 239.316 32.6777 240 31.3773H240.317V34.5488H244.02V7.37156H240.228V17.4701H240C239.316 16.2095 238.022 13.9005 234.396 13.9005C229.692 13.9005 226.231 17.7886 226.231 24.3972C226.231 30.9924 229.641 34.9469 234.371 34.9469ZM235.207 31.563C231.822 31.563 230.06 28.4446 230.06 24.3573C230.06 20.31 231.784 17.2711 235.207 17.2711C238.517 17.2711 240.292 20.0976 240.292 24.3573C240.292 28.6436 238.479 31.563 235.207 31.563Z" fill="black"/>
<path d="M257.903 10.9014H265.993V34.5488H269.898V10.9014H278V7.37156H257.903V10.9014Z" fill="black"/>
</svg>
