<svg width="67" height="42" viewBox="0 0 67 42" fill="none" xmlns="http://www.w3.org/2000/svg">
<path d="M2 4.74038C2 3.22691 3.21414 2 4.71186 2H31.2881C32.7859 2 34 3.22691 34 4.74038V37.2596C34 38.7731 32.7859 40 31.2881 40H4.71186C3.21414 40 2 38.7731 2 37.2596V4.74038Z" fill="#6D51FB"/>
<path d="M61.3248 2C62.8023 2 64 3.22104 64 4.72727V17.2727C64 18.779 62.8023 20 61.3248 20L38.6752 20C37.1977 20 36 18.779 36 17.2727L36 4.72727C36 3.22104 37.1977 2 38.6752 2L61.3248 2Z" fill="#F8C836"/>
<path d="M36 24.7835C36 23.2462 37.2126 22 38.7083 22H46.2917C47.7874 22 49 23.2462 49 24.7835V37.2165C49 38.7538 47.7874 40 46.2917 40H38.7083C37.2126 40 36 38.7538 36 37.2165V24.7835Z" fill="#54B8F8"/>
<path d="M51 24.7551C51 23.2335 52.2126 22 53.7083 22H61.2917C62.7874 22 64 23.2335 64 24.7551V37.2449C64 38.7665 62.7874 40 61.2917 40H53.7083C52.2126 40 51 38.7665 51 37.2449V24.7551Z" fill="#65DCFA"/>
</svg>
