<svg width="24" height="24" viewBox="0 0 24 24" fill="none" xmlns="http://www.w3.org/2000/svg">
<path d="M7.28571 8.35C7.28571 8.35 3.92786 12.6824 1.74576 15.7023C1.36349 16.2314 1.59432 16.9734 2.20529 17.203L5.14957 18.3096C5.17565 18.3194 5.20464 18.3179 5.22955 18.3054L10.5522 15.6381C11.0575 15.3848 11.6721 15.6004 11.9085 16.1138L14.5811 21.9176C14.6026 21.9643 14.653 21.9881 14.7013 21.9705C15.3681 21.7278 19.9024 20.0056 21.5 17.5C22.8207 15.4285 22.9838 11.4893 22.9987 11.0209C22.9996 10.9913 22.9872 10.9637 22.9649 10.9443L18.8095 7.3L12 3L9.38095 2V4.675L8.85714 5.725M7.28571 8.35L3.61905 4.15L8.85714 5.725M7.28571 8.35L8.85714 5.725" stroke="#4F4F4F" stroke-width="2"/>
</svg>
